<svg width="270" height="395" viewBox="0 0 270 395" fill="none" xmlns="http://www.w3.org/2000/svg">
<path d="M178 0L53 212H111L177 2L178 0Z" fill="white"/>
<path d="M48 395L173 177H111L48 395Z" fill="white"/>
<path d="M39.249 206.922C39.2163 206.955 39.2 207.004 39.2 207.069C39.2 207.102 39.1837 207.134 39.151 207.167C39.0857 207.298 39.053 207.363 39.053 207.363C39.0203 207.494 38.9713 207.575 38.906 207.608C38.8407 207.641 38.7753 207.69 38.71 207.755L38.514 207.902C38.416 208.327 38.3343 208.735 38.269 209.127C38.2363 209.552 38.1873 209.976 38.122 210.401C38.0893 210.564 38.0567 210.809 38.024 211.136C38.024 211.463 37.9913 211.544 37.926 211.381C37.828 210.956 37.779 210.532 37.779 210.107C37.8117 209.682 37.7953 209.258 37.73 208.833C37.73 208.8 37.6973 208.8 37.632 208.833C37.5993 208.898 37.5667 208.931 37.534 208.931C37.4687 208.964 37.387 209.013 37.289 209.078C37.191 209.143 37.0767 209.16 36.946 209.127C36.9133 209.127 36.8643 209.094 36.799 209.029C36.5377 209.029 36.26 208.915 35.966 208.686C35.9333 208.784 35.917 208.898 35.917 209.029C35.9497 209.192 35.917 209.307 35.819 209.372C35.721 209.437 35.672 209.388 35.672 209.225C35.672 209.062 35.6557 208.931 35.623 208.833C35.623 208.833 35.6067 208.686 35.574 208.392C35.574 208.131 35.427 208.065 35.133 208.196C35.1003 208.229 35.0513 208.278 34.986 208.343C34.9533 208.408 34.888 208.49 34.79 208.588C34.692 208.719 34.5777 208.833 34.447 208.931C34.4143 208.964 34.3653 209.013 34.3 209.078C34.2673 209.176 34.2183 209.258 34.153 209.323C34.055 209.388 33.957 209.372 33.859 209.274C33.7937 209.209 33.7283 209.16 33.663 209.127C33.6303 209.127 33.5487 209.143 33.418 209.176C33.32 209.241 33.271 209.29 33.271 209.323C33.271 209.323 33.2547 209.323 33.222 209.323C33.222 209.323 33.222 209.339 33.222 209.372C33.222 209.372 33.1893 209.405 33.124 209.47C32.928 209.699 32.781 209.96 32.683 210.254C32.585 210.581 32.4707 210.875 32.34 211.136C32.2747 211.267 32.193 211.414 32.095 211.577C32.0297 211.773 31.9153 211.92 31.752 212.018C31.7193 212.443 31.6867 212.867 31.654 213.292C31.654 213.717 31.6213 214.141 31.556 214.566C31.5233 214.664 31.4907 214.811 31.458 215.007C31.458 215.203 31.4253 215.252 31.36 215.154C31.262 214.958 31.213 214.746 31.213 214.517C31.213 214.321 31.1967 214.109 31.164 213.88C31.1313 213.521 31.115 213.178 31.115 212.851C31.115 212.524 31.0823 212.198 31.017 211.871C30.821 211.708 30.674 211.561 30.576 211.43C30.4453 211.234 30.2983 211.022 30.135 210.793C30.0043 210.564 29.8573 210.336 29.694 210.107C29.5633 209.878 29.4327 209.666 29.302 209.47C29.204 209.274 29.0897 209.078 28.959 208.882C28.9263 208.817 28.8773 208.751 28.812 208.686L28.665 208.441H28.616C28.5833 208.441 28.5343 208.359 28.469 208.196C28.4363 208.065 28.3873 207.951 28.322 207.853C28.4853 208.016 28.5343 208.065 28.469 208C28.4363 207.935 28.3547 207.837 28.224 207.706C28.126 207.575 28.0607 207.51 28.028 207.51L27.979 207.461L27.832 207.216C27.832 207.183 27.8157 207.167 27.783 207.167C27.783 207.134 27.783 207.102 27.783 207.069C27.685 206.808 27.6523 206.514 27.685 206.187C27.7177 205.828 27.734 205.517 27.734 205.256V193.643C27.734 194.198 27.7503 194.46 27.783 194.427C27.8157 194.394 27.8483 194.247 27.881 193.986C27.9137 193.725 27.9137 193.512 27.881 193.349C27.8483 193.153 27.7667 193.186 27.636 193.447L27.44 193.741C27.3747 193.806 27.342 193.855 27.342 193.888C27.3747 193.888 27.3583 193.921 27.293 193.986C27.293 193.986 27.2767 194.002 27.244 194.035C27.244 194.035 27.244 194.051 27.244 194.084C27.0807 194.313 26.9173 194.558 26.754 194.819C26.6233 195.08 26.4763 195.342 26.313 195.603C26.0517 196.028 25.7903 196.469 25.529 196.926C25.2677 197.383 24.99 197.824 24.696 198.249C24.6633 198.347 24.6143 198.445 24.549 198.543C24.4837 198.641 24.4183 198.723 24.353 198.788C24.255 198.919 24.1407 199.049 24.01 199.18C23.912 199.311 23.7813 199.409 23.618 199.474C23.5853 199.507 23.5363 199.556 23.471 199.621C23.4383 199.686 23.373 199.801 23.275 199.964C23.2423 199.997 23.1933 200.013 23.128 200.013C23.0953 200.372 23.0627 200.928 23.03 201.679C23.03 202.398 23.0137 203.182 22.981 204.031C22.981 204.88 22.9647 205.681 22.932 206.432C22.932 207.151 22.9157 207.69 22.883 208.049C22.883 208.082 22.8503 208.098 22.785 208.098C22.7197 208.098 22.687 208.082 22.687 208.049C22.6543 207.592 22.6217 206.873 22.589 205.893C22.589 204.913 22.589 203.917 22.589 202.904C22.589 201.891 22.5563 201.091 22.491 200.503C22.491 200.503 22.442 200.454 22.344 200.356L22.295 200.405C22.295 200.405 22.295 200.421 22.295 200.454C22.295 200.454 22.2787 200.454 22.246 200.454C22.246 200.519 22.2133 200.585 22.148 200.65C22.0827 200.781 22.001 200.911 21.903 201.042C21.805 201.14 21.6907 201.222 21.56 201.287C21.4947 201.45 21.4783 201.663 21.511 201.924C21.5437 202.185 21.4783 202.3 21.315 202.267C21.1517 202.202 21.1027 202.055 21.168 201.826C21.2333 201.565 21.2333 201.336 21.168 201.14C21.1027 201.075 21.0373 200.993 20.972 200.895C20.9067 200.797 20.8413 200.732 20.776 200.699C20.678 200.601 20.629 200.552 20.629 200.552C20.5963 200.683 20.5473 200.813 20.482 200.944C20.4493 201.075 20.4167 201.173 20.384 201.238C20.384 201.075 20.335 200.879 20.237 200.65C20.1717 200.715 20.139 200.764 20.139 200.797C20.139 200.797 20.1063 200.83 20.041 200.895C19.9757 200.993 19.9103 201.107 19.845 201.238C19.7797 201.369 19.7143 201.483 19.649 201.581C19.6163 201.614 19.551 201.679 19.453 201.777C19.3877 201.842 19.3223 201.859 19.257 201.826C19.1917 201.793 19.1427 201.761 19.11 201.728C19.0773 201.663 19.0283 201.614 18.963 201.581C18.7997 201.418 18.6853 201.173 18.62 200.846C18.5547 200.617 18.4893 200.405 18.424 200.209C18.3913 199.98 18.3423 199.752 18.277 199.523C18.1463 199.458 18.032 199.376 17.934 199.278C17.8687 199.147 17.787 199.033 17.689 198.935L17.444 198.543C17.1827 198.118 16.9213 197.694 16.66 197.269C16.3987 196.812 16.1373 196.371 15.876 195.946L15.435 195.211C15.337 195.08 15.239 194.95 15.141 194.819C15.0757 194.688 14.994 194.558 14.896 194.427L14.749 194.133C14.7163 194.068 14.6837 194.002 14.651 193.937C14.6183 193.872 14.5693 193.806 14.504 193.741C14.504 193.708 14.4877 193.692 14.455 193.692C14.455 193.692 14.455 193.676 14.455 193.643C14.455 193.643 14.4223 193.61 14.357 193.545C14.357 193.382 14.3243 193.267 14.259 193.202C14.2263 193.104 14.21 193.186 14.21 193.447V205.893C14.21 206.056 14.21 206.236 14.21 206.432C14.2427 206.595 14.2427 206.759 14.21 206.922C14.21 206.857 14.1937 206.889 14.161 207.02C14.1283 207.118 14.1283 207.151 14.161 207.118C14.1283 207.249 14.0467 207.379 13.916 207.51L13.622 207.804C13.5893 207.935 13.5567 208.065 13.524 208.196C13.524 208.359 13.4913 208.523 13.426 208.686C13.3607 209.111 13.279 209.519 13.181 209.911C13.1157 210.336 13.0177 210.76 12.887 211.185C12.8543 211.283 12.8053 211.446 12.74 211.675C12.6747 211.904 12.6093 212.067 12.544 212.165C12.348 212.361 12.201 212.296 12.103 211.969C12.005 211.675 11.9397 211.512 11.907 211.479C11.8417 211.218 11.7763 210.94 11.711 210.646C11.6457 210.385 11.5803 210.107 11.515 209.813C11.4823 209.65 11.466 209.486 11.466 209.323C11.466 209.16 11.4333 209.013 11.368 208.882C11.3027 208.947 11.221 209.013 11.123 209.078C11.025 209.176 10.927 209.258 10.829 209.323C10.7637 209.944 10.7147 210.581 10.682 211.234C10.682 211.92 10.6493 212.59 10.584 213.243C10.584 213.276 10.5513 213.259 10.486 213.194C10.4207 213.129 10.388 213.08 10.388 213.047C10.094 212.557 9.996 212.1 10.094 211.675C10.192 211.283 10.29 210.875 10.388 210.45C10.5187 210.025 10.437 209.584 10.143 209.127C10.1103 209.062 10.0777 208.996 10.045 208.931C10.0123 208.866 9.96333 208.8 9.898 208.735C9.83267 208.735 9.8 208.735 9.8 208.735C9.73467 209.258 9.702 209.764 9.702 210.254C9.702 210.777 9.66933 211.283 9.604 211.773C9.604 211.773 9.53867 211.773 9.408 211.773C9.27733 211.773 9.212 211.757 9.212 211.724C9.17933 211.234 9.14667 210.728 9.114 210.205C9.114 209.715 9.08133 209.209 9.016 208.686H8.771L8.722 208.637C8.65667 208.637 8.624 208.637 8.624 208.637C8.59133 209.062 8.575 209.47 8.575 209.862C8.575 210.287 8.54233 210.711 8.477 211.136C8.477 211.169 8.41167 211.12 8.281 210.989C8.15033 210.924 8.085 210.875 8.085 210.842C8.01967 210.483 7.987 210.14 7.987 209.813C7.987 209.486 7.97067 209.16 7.938 208.833C7.90533 208.866 7.87267 208.915 7.84 208.98C7.80733 209.045 7.80733 209.045 7.84 208.98C7.80733 209.078 7.742 209.176 7.644 209.274C7.61133 209.307 7.56233 209.339 7.497 209.372C7.43167 209.437 7.36633 209.503 7.301 209.568C7.203 209.764 7.13767 209.96 7.105 210.156C7.07233 210.385 7.007 210.613 6.909 210.842C6.87633 210.875 6.84367 210.924 6.811 210.989C6.811 211.054 6.77833 211.12 6.713 211.185C6.64767 211.25 6.58233 211.25 6.517 211.185C6.38633 211.054 6.30467 210.826 6.272 210.499C6.23933 210.172 6.19033 209.96 6.125 209.862C5.96167 209.699 5.81467 209.486 5.684 209.225C5.586 208.996 5.45533 208.719 5.292 208.392C5.25933 208.457 5.243 208.506 5.243 208.539C5.243 208.604 5.22667 208.67 5.194 208.735C5.16133 208.768 5.07967 208.751 4.949 208.686C4.851 208.653 4.802 208.637 4.802 208.637C4.67133 208.572 4.57333 208.506 4.508 208.441C4.54067 208.506 4.557 208.621 4.557 208.784C4.557 208.947 4.49167 209.209 4.361 209.568C4.32833 209.699 4.29567 209.813 4.263 209.911C4.23033 210.009 4.19767 210.123 4.165 210.254C4.13233 210.613 4.116 211.169 4.116 211.92C4.116 212.704 4.116 213.521 4.116 214.37C4.116 215.252 4.116 216.069 4.116 216.82C4.116 217.604 4.08333 218.176 4.018 218.535C3.98533 218.862 3.95267 218.911 3.92 218.682C3.92 218.453 3.92 218.061 3.92 217.506C3.92 216.951 3.92 216.379 3.92 215.791C3.92 215.203 3.92 214.746 3.92 214.419C3.88733 213.439 3.871 212.622 3.871 211.969C3.871 211.348 3.85467 210.728 3.822 210.107C3.78933 209.519 3.70767 208.8 3.577 207.951C3.44633 207.886 3.332 207.82 3.234 207.755C2.87467 207.494 2.695 207.134 2.695 206.677V175.023C2.695 174.664 2.82567 174.353 3.087 174.092C3.34833 173.831 3.70767 173.7 4.165 173.7H10.78C11.1393 173.7 11.4823 173.7 11.809 173.7C12.1357 173.667 12.446 173.733 12.74 173.896C13.0993 174.059 13.377 174.288 13.573 174.582C13.8017 174.876 13.9977 175.186 14.161 175.513C14.2263 175.578 14.2753 175.66 14.308 175.758C14.3733 175.823 14.4223 175.905 14.455 176.003L14.7 176.395C14.994 176.754 15.2717 177.179 15.533 177.669C15.827 178.126 16.1047 178.616 16.366 179.139L18.081 181.981C18.473 182.569 18.8487 183.173 19.208 183.794C19.5673 184.415 19.9267 185.019 20.286 185.607C20.3513 185.738 20.433 185.885 20.531 186.048C20.629 186.179 20.7107 186.326 20.776 186.489L20.972 186.783L21.168 186.44C21.2333 186.277 21.315 186.13 21.413 185.999C21.511 185.868 21.5927 185.738 21.658 185.607C21.952 185.15 22.246 184.676 22.54 184.186C22.834 183.696 23.128 183.206 23.422 182.716L23.765 182.128C23.765 182.095 23.765 182.079 23.765 182.079C23.7977 182.079 23.814 182.063 23.814 182.03C23.814 182.03 23.8467 181.997 23.912 181.932L25.578 179.139C25.6107 179.139 25.627 179.139 25.627 179.139C25.627 179.106 25.627 179.09 25.627 179.09C25.8883 178.6 26.1497 178.126 26.411 177.669C26.705 177.212 26.9663 176.803 27.195 176.444L27.489 175.954C27.6523 175.693 27.7993 175.448 27.93 175.219C28.0933 174.958 28.273 174.713 28.469 174.484C28.469 174.451 28.4853 174.435 28.518 174.435C28.6813 174.206 28.91 174.027 29.204 173.896C29.498 173.733 29.8083 173.667 30.135 173.7C30.4943 173.7 30.8373 173.7 31.164 173.7H37.926C38.122 173.7 38.269 173.733 38.367 173.798C38.465 173.831 38.5793 173.88 38.71 173.945C39.004 174.141 39.1837 174.468 39.249 174.925C39.2817 175.154 39.2817 175.399 39.249 175.66C39.249 175.921 39.249 176.166 39.249 176.395V204.521C39.249 204.913 39.2653 205.321 39.298 205.746C39.3307 206.138 39.3143 206.53 39.249 206.922ZM71.9538 194.476C71.9865 194.999 71.9865 195.521 71.9538 196.044C71.9538 196.567 71.9375 197.073 71.9048 197.563C71.8395 198.576 71.6925 199.523 71.4638 200.405C71.2352 201.254 70.9085 202.038 70.4838 202.757C70.3532 202.986 70.2225 203.214 70.0918 203.443C69.9612 203.672 69.8142 203.9 69.6508 204.129C69.4875 204.325 69.3078 204.505 69.1118 204.668C69.1118 204.701 69.0955 204.733 69.0628 204.766C68.9322 204.962 68.7688 205.125 68.5728 205.256C68.5402 205.289 68.5075 205.321 68.4748 205.354C68.4422 205.387 68.3932 205.436 68.3278 205.501C68.2952 205.534 68.2625 205.566 68.2298 205.599C68.1972 205.632 68.1645 205.664 68.1318 205.697L67.8378 206.334C67.8378 206.465 67.8378 206.595 67.8378 206.726C67.8378 206.824 67.8215 206.938 67.7888 207.069C67.7562 207.298 67.7562 207.608 67.7888 208C67.8215 208.359 67.7562 208.474 67.5928 208.343C67.4948 208.245 67.4295 208.131 67.3968 208C67.3968 207.837 67.3968 207.69 67.3968 207.559C67.3968 207.624 67.3642 207.69 67.2988 207.755C67.2662 207.853 67.2008 207.951 67.1028 208.049C67.0375 208.18 66.9395 208.261 66.8088 208.294C66.5802 208.392 66.3842 208.31 66.2208 208.049C66.0902 207.82 65.9922 207.641 65.9268 207.51C65.9268 207.477 65.9105 207.445 65.8778 207.412C65.6492 207.837 65.5512 208.31 65.5838 208.833C65.6165 209.388 65.6002 209.927 65.5348 210.45C65.5348 210.581 65.5185 210.728 65.4858 210.891C65.4532 211.087 65.4205 211.267 65.3878 211.43C65.3552 211.626 65.2735 211.806 65.1428 211.969C65.1428 212.067 65.0775 212.116 64.9468 212.116C64.8162 212.051 64.7508 211.969 64.7508 211.871C64.6855 211.316 64.6528 210.744 64.6528 210.156C64.6528 209.568 64.6202 208.996 64.5548 208.441C64.5548 208.441 64.5385 208.425 64.5058 208.392C64.5058 208.392 64.4895 208.392 64.4568 208.392C64.3588 208.425 64.2608 208.474 64.1628 208.539C64.0648 208.604 63.9832 208.67 63.9178 208.735C63.6892 208.964 63.4932 209.241 63.3298 209.568C63.2318 209.764 63.1338 209.96 63.0358 210.156C62.9705 210.352 62.8888 210.532 62.7908 210.695C62.7582 210.728 62.7092 210.793 62.6438 210.891C62.6112 211.022 62.5948 211.071 62.5948 211.038C62.5295 210.679 62.4968 210.319 62.4968 209.96C62.4968 209.601 62.4642 209.258 62.3988 208.931C62.4642 208.931 62.3662 208.915 62.1048 208.882C61.8762 208.882 61.7782 208.898 61.8108 208.931C61.7455 209.454 61.7128 209.976 61.7128 210.499C61.7128 211.022 61.6802 211.544 61.6148 212.067C61.6148 212.1 61.5495 212.165 61.4188 212.263C61.3208 212.361 61.2555 212.426 61.2228 212.459C61.1902 212.492 61.1412 212.508 61.0758 212.508C61.0432 212.541 61.0268 212.541 61.0268 212.508C60.9615 211.953 60.9288 211.381 60.9288 210.793C60.9288 210.238 60.8798 209.682 60.7818 209.127C60.6838 209.16 60.6022 209.209 60.5368 209.274C60.4715 209.339 60.4388 209.372 60.4388 209.372C60.4062 209.405 60.3735 209.454 60.3408 209.519C60.3408 209.617 60.3082 209.699 60.2428 209.764C60.2102 209.764 60.1285 209.699 59.9978 209.568C59.9652 209.503 59.9325 209.437 59.8998 209.372C59.8998 209.307 59.8672 209.258 59.8018 209.225C59.8018 209.192 59.7855 209.176 59.7528 209.176C59.7202 209.143 59.7038 209.127 59.7038 209.127C59.7038 209.16 59.6875 209.16 59.6548 209.127H59.3608C59.3608 209.258 59.3608 209.388 59.3608 209.519C59.3608 209.65 59.3282 209.797 59.2628 209.96C59.2628 209.96 59.1322 209.813 58.8708 209.519C58.7075 209.356 58.6258 209.274 58.6258 209.274C58.6258 209.307 58.5768 209.307 58.4788 209.274C58.3482 209.274 58.2828 209.258 58.2828 209.225C58.2502 209.682 58.2175 210.123 58.1848 210.548C58.1848 211.005 58.1522 211.463 58.0868 211.92C58.0868 211.985 58.0542 211.953 57.9888 211.822C57.9562 211.691 57.9235 211.593 57.8908 211.528C57.8582 211.43 57.8255 211.332 57.7928 211.234C57.7602 211.169 57.7275 211.087 57.6948 210.989C57.5968 210.564 57.5152 210.14 57.4498 209.715C57.4172 209.323 57.3682 208.915 57.3028 208.49H57.0088C52.5662 208.392 49.2178 207.363 46.9638 205.403L46.6698 205.109C44.7425 203.28 43.6808 200.764 43.4848 197.563C43.3868 196.028 43.3868 194.492 43.4848 192.957C43.7462 189.331 45.1182 186.603 47.6008 184.774C50.1162 182.945 53.5462 182.03 57.8908 182.03H58.3318C58.7892 182.03 59.2465 182.046 59.7038 182.079C60.1612 182.112 60.6022 182.161 61.0268 182.226C61.0922 182.226 61.1412 182.242 61.1738 182.275C64.5385 182.765 67.2335 184.039 69.2588 186.097C69.3242 186.162 69.4058 186.277 69.5038 186.44C69.6345 186.571 69.7162 186.669 69.7488 186.734C70.6635 187.943 71.2842 189.298 71.6108 190.801C71.6108 190.834 71.6108 190.866 71.6108 190.899C71.6435 190.932 71.6598 190.964 71.6598 190.997C71.7905 191.552 71.8722 192.14 71.9048 192.761C71.9375 193.349 71.9538 193.921 71.9538 194.476ZM56.3718 200.307C56.4698 200.372 56.5842 200.438 56.7148 200.503C57.0742 200.601 57.3518 200.65 57.5478 200.65C57.7438 200.65 57.9398 200.634 58.1358 200.601H58.4298C58.5605 200.536 58.6748 200.487 58.7728 200.454C58.9035 200.389 59.0178 200.323 59.1158 200.258C59.3772 199.997 59.5405 199.686 59.6058 199.327C59.7038 198.968 59.7692 198.625 59.8018 198.298C59.8345 198.102 59.8508 197.89 59.8508 197.661C59.8835 197.432 59.8998 197.204 59.8998 196.975C59.9325 196.518 59.9488 195.979 59.9488 195.358C59.9488 194.737 59.9325 194.182 59.8998 193.692C59.8998 193.529 59.8998 193.365 59.8998 193.202C59.8998 193.039 59.8835 192.892 59.8508 192.761C59.8508 192.63 59.8345 192.516 59.8018 192.418C59.8018 192.287 59.8018 192.157 59.8018 192.026C59.7038 191.177 59.4752 190.605 59.1158 190.311C58.9852 190.18 58.8872 190.115 58.8218 190.115C58.7892 190.082 58.7402 190.066 58.6748 190.066C58.6422 190.066 58.6095 190.066 58.5768 190.066C58.5442 190.033 58.5115 190.033 58.4788 190.066C58.4462 190.099 58.4135 190.18 58.3808 190.311C58.3808 190.409 58.3482 190.491 58.2828 190.556C58.2502 190.621 58.1522 190.67 57.9888 190.703C57.8582 190.703 57.7602 190.687 57.6948 190.654C57.4988 190.621 57.3192 190.523 57.1558 190.36H56.8618C56.8292 190.327 56.7965 190.295 56.7638 190.262C56.7312 190.197 56.6822 190.148 56.6168 190.115C56.5188 190.115 56.4208 190.164 56.3228 190.262C56.0942 190.458 55.9308 190.736 55.8328 191.095C55.7348 191.422 55.6532 191.814 55.5878 192.271C55.5552 192.369 55.5388 192.5 55.5388 192.663C55.5388 192.761 55.5225 192.875 55.4898 193.006C55.4898 193.104 55.4898 193.218 55.4898 193.349C55.4572 193.61 55.4408 193.921 55.4408 194.28C55.4408 194.639 55.4408 194.999 55.4408 195.358C55.4408 195.587 55.4408 195.815 55.4408 196.044C55.4735 196.24 55.4898 196.452 55.4898 196.681C55.4898 196.91 55.4898 197.138 55.4898 197.367C55.4898 197.596 55.5062 197.792 55.5388 197.955C55.6042 198.543 55.6695 199 55.7348 199.327C55.8328 199.654 56.0452 199.98 56.3718 200.307ZM103.637 206.53C103.637 206.628 103.621 206.726 103.588 206.824C103.588 206.922 103.572 207.02 103.539 207.118C103.474 207.249 103.425 207.33 103.392 207.363C103.262 207.559 103.147 207.69 103.049 207.755C102.984 207.788 102.886 207.869 102.755 208C102.69 208.065 102.641 208.131 102.608 208.196C102.478 208.327 102.363 208.474 102.265 208.637C102.167 208.8 102.037 208.947 101.873 209.078L101.726 209.225C101.596 209.617 101.514 210.042 101.481 210.499C101.481 210.989 101.367 211.414 101.138 211.773C101.04 211.969 100.91 211.92 100.746 211.626C100.681 211.463 100.616 211.234 100.55 210.94C100.485 210.679 100.42 210.483 100.354 210.352C100.322 210.221 100.305 210.074 100.305 209.911C100.305 209.78 100.24 209.682 100.109 209.617C100.077 209.584 100.028 209.568 99.9623 209.568C99.8643 209.568 99.75 209.535 99.6193 209.47C99.6193 209.503 99.6683 209.601 99.7663 209.764C99.8643 209.927 99.9296 210.058 99.9623 210.156C100.028 210.287 99.946 210.303 99.7173 210.205C99.6193 210.14 99.5376 209.993 99.4723 209.764C99.4396 209.535 99.4233 209.388 99.4233 209.323C99.2926 209.192 99.1946 209.078 99.1293 208.98C99.0966 208.915 99.0476 208.833 98.9823 208.735C98.917 208.67 98.8516 208.588 98.7863 208.49C98.721 208.849 98.6883 209.209 98.6883 209.568C98.6883 209.927 98.6556 210.287 98.5903 210.646C98.5903 210.679 98.525 210.695 98.3943 210.695C98.2636 210.728 98.133 210.744 98.0023 210.744C97.8716 210.744 97.741 210.728 97.6103 210.695C97.1856 210.597 96.7446 210.466 96.2873 210.303C95.8626 210.172 95.4706 209.96 95.1113 209.666C94.6213 209.339 94.1476 208.964 93.6903 208.539L93.3963 208.098C93.3636 208.065 93.331 208.033 93.2983 208C93.2656 207.967 93.2166 207.886 93.1513 207.755V207.706C92.9226 207.543 92.7756 207.379 92.7103 207.216C92.6776 207.053 92.645 206.889 92.6123 206.726V205.55C92.5796 205.583 92.547 205.615 92.5143 205.648C92.4816 205.681 92.4326 205.73 92.3673 205.795C92.3673 205.828 92.351 205.86 92.3183 205.893C92.2856 205.926 92.2693 205.942 92.2693 205.942C92.2366 205.975 92.204 206.007 92.1713 206.04C92.1386 206.04 92.106 206.056 92.0733 206.089C92.008 206.187 91.9263 206.285 91.8283 206.383C91.7303 206.448 91.6323 206.514 91.5343 206.579L91.3873 207.118C91.3873 207.151 91.371 207.183 91.3383 207.216C91.3383 207.216 91.3383 207.249 91.3383 207.314V207.363L91.0443 208.147C90.9463 208.376 90.8483 208.604 90.7503 208.833C90.6523 209.062 90.538 209.258 90.4073 209.421C90.3093 209.584 90.195 209.682 90.0643 209.715C90.0316 209.78 89.9826 209.895 89.9173 210.058C89.8846 210.221 89.7866 210.287 89.6233 210.254C89.4926 210.189 89.3783 210.074 89.2803 209.911C89.215 209.748 89.1006 209.666 88.9373 209.666C88.9046 209.699 88.8393 209.748 88.7413 209.813C88.676 209.878 88.627 209.927 88.5943 209.96C88.5616 209.993 88.48 210.091 88.3493 210.254C88.2186 210.417 88.1043 210.564 88.0063 210.695C87.9736 210.728 87.941 210.744 87.9083 210.744C87.8756 210.777 87.8266 210.809 87.7613 210.842C87.7286 211.267 87.7776 211.789 87.9083 212.41C88.039 213.063 88.1043 213.619 88.1043 214.076C88.137 214.566 87.941 214.778 87.5163 214.713C87.0916 214.615 86.8793 214.337 86.8793 213.88C86.912 213.423 86.9936 212.9 87.1243 212.312C87.2876 211.724 87.353 211.218 87.3203 210.793L87.1733 210.646C87.1733 210.646 87.157 210.646 87.1243 210.646C87.1243 210.646 87.1243 210.63 87.1243 210.597C87.0916 210.597 87.0263 210.548 86.9283 210.45C86.863 210.385 86.814 210.336 86.7813 210.303L85.7523 208.98C85.7196 208.947 85.7033 208.915 85.7033 208.882C85.7033 208.882 85.687 208.866 85.6543 208.833C85.5563 208.996 85.5236 209.127 85.5563 209.225C85.589 209.323 85.5236 209.078 85.3603 208.49H84.8213C84.658 208.49 84.5436 208.474 84.4783 208.441C82.845 208.343 81.4076 207.984 80.1663 207.363C80.0356 207.298 79.905 207.232 79.7743 207.167C79.6763 207.102 79.5783 207.02 79.4803 206.922C78.1736 206.073 77.112 204.864 76.2953 203.296C75.5113 201.695 75.0703 199.654 74.9723 197.171C74.9396 196.681 74.9233 196.24 74.9233 195.848C74.9233 195.456 74.9233 195.048 74.9233 194.623V194.329C74.9233 194.231 74.9396 194.149 74.9723 194.084V193.3C75.0376 191.177 75.4133 189.364 76.0993 187.861C76.7853 186.326 77.6836 185.101 78.7943 184.186C78.9576 184.023 79.1373 183.892 79.3333 183.794C80.9993 182.618 83.0083 182.03 85.3603 182.03C85.5563 182.03 85.7523 182.03 85.9483 182.03C86.177 182.03 86.373 182.046 86.5363 182.079C86.7976 182.079 87.0426 182.095 87.2713 182.128C87.5326 182.161 87.7776 182.21 88.0063 182.275C88.0716 182.308 88.1533 182.34 88.2513 182.373C88.3493 182.373 88.4473 182.406 88.5453 182.471C89.362 182.7 90.1133 183.043 90.7993 183.5L91.0933 183.696C91.224 183.761 91.322 183.843 91.3873 183.941C91.4853 184.006 91.5833 184.072 91.6813 184.137C91.6813 184.17 91.6813 184.186 91.6813 184.186C91.714 184.186 91.7303 184.186 91.7303 184.186C91.7303 184.186 91.7303 184.202 91.7303 184.235C91.7303 184.235 91.7466 184.235 91.7793 184.235C91.7793 184.562 91.7793 184.709 91.7793 184.676C91.812 184.643 91.8283 184.545 91.8283 184.382C91.861 184.219 91.8773 184.137 91.8773 184.137V176.248C91.8446 175.921 91.812 175.578 91.7793 175.219C91.7793 174.86 91.812 174.533 91.8773 174.239C91.9753 173.88 92.155 173.635 92.4163 173.504C92.6123 173.308 92.8736 173.21 93.2003 173.21H99.7663C100.028 173.21 100.403 173.21 100.893 173.21C101.383 173.177 101.841 173.177 102.265 173.21C102.559 173.21 102.772 173.275 102.902 173.406C103.033 173.471 103.115 173.52 103.147 173.553C103.441 173.782 103.588 174.125 103.588 174.582V204.276C103.588 204.603 103.605 204.978 103.637 205.403C103.67 205.795 103.67 206.171 103.637 206.53ZM90.6523 199.474C90.9463 199.311 91.175 199.115 91.3383 198.886C91.5016 198.625 91.6323 198.331 91.7303 198.004C91.8283 197.547 91.8773 197.089 91.8773 196.632C91.8773 196.567 91.8773 196.501 91.8773 196.436C91.91 196.338 91.9263 196.256 91.9263 196.191V195.162C91.959 194.901 91.959 194.623 91.9263 194.329C91.9263 194.002 91.91 193.578 91.8773 193.055C91.8446 192.99 91.8283 192.908 91.8283 192.81L91.6813 192.173C91.6486 192.108 91.616 192.042 91.5833 191.977C91.5506 191.879 91.518 191.797 91.4853 191.732L91.2403 191.438L91.1423 191.34C91.077 191.307 91.0116 191.258 90.9463 191.193C90.8483 191.16 90.7176 191.144 90.5543 191.144H90.2603C90.0316 191.144 89.7866 191.16 89.5253 191.193C89.2966 191.193 89.0516 191.193 88.7903 191.193C88.6923 191.193 88.578 191.193 88.4473 191.193C88.3166 191.16 88.186 191.16 88.0553 191.193C87.794 191.356 87.598 191.569 87.4673 191.83C87.4346 191.83 87.4183 191.846 87.4183 191.879C87.4183 191.879 87.3856 191.944 87.3203 192.075C87.2876 192.173 87.255 192.271 87.2223 192.369C87.1896 192.467 87.157 192.565 87.1243 192.663C87.1243 192.728 87.108 192.81 87.0753 192.908C87.0753 192.973 87.0753 193.039 87.0753 193.104C87.0426 193.235 87.01 193.365 86.9773 193.496C86.9773 193.627 86.9773 193.757 86.9773 193.888C86.9773 193.986 86.961 194.084 86.9283 194.182C86.9283 194.28 86.9283 194.378 86.9283 194.476C86.8956 194.868 86.8793 195.276 86.8793 195.701C86.912 196.126 86.9446 196.534 86.9773 196.926C86.9773 196.991 86.9773 197.057 86.9773 197.122C87.01 197.187 87.0263 197.253 87.0263 197.318L87.1243 197.71C87.1896 198.004 87.2713 198.298 87.3693 198.592C87.5 198.853 87.6796 199.082 87.9083 199.278L88.1533 199.425C88.48 199.621 88.8066 199.719 89.1333 199.719C89.46 199.719 89.705 199.703 89.8683 199.67C90.0316 199.67 90.1623 199.654 90.2603 199.621C90.391 199.556 90.5216 199.507 90.6523 199.474ZM140.737 207.118C140.704 207.314 140.59 207.51 140.394 207.706C140.328 207.771 140.279 207.804 140.247 207.804C140.247 207.837 140.214 207.886 140.149 207.951C140.083 208.114 140.002 208.278 139.904 208.441C139.806 208.604 139.724 208.768 139.659 208.931L139.365 209.47C139.005 210.156 138.646 210.891 138.287 211.675C137.96 212.492 137.666 213.21 137.405 213.831C137.372 214.027 137.323 214.207 137.258 214.37C137.192 214.566 137.127 214.762 137.062 214.958L136.768 215.693C136.702 215.922 136.621 216.101 136.523 216.232C136.425 216.363 136.327 216.493 136.229 216.624L136.18 216.673C136.18 216.673 136.163 216.673 136.131 216.673C136.131 216.706 136.114 216.722 136.082 216.722C136.082 216.722 136.065 216.722 136.033 216.722C136.033 216.755 136.016 216.771 135.984 216.771C135.657 217.13 135.51 217.375 135.543 217.506C135.575 217.637 135.657 217.718 135.788 217.751C135.951 217.816 136.049 217.914 136.082 218.045C136.147 218.176 136 218.421 135.641 218.78C135.543 218.976 135.477 219.058 135.445 219.025C135.379 218.96 135.33 218.862 135.298 218.731C135.298 218.633 135.281 218.535 135.249 218.437C135.216 218.241 135.2 218.029 135.2 217.8C135.2 217.604 135.167 217.408 135.102 217.212C135.069 217.245 135.036 217.261 135.004 217.261C135.004 217.261 134.987 217.294 134.955 217.359C134.922 217.392 134.889 217.441 134.857 217.506C134.824 217.571 134.775 217.637 134.71 217.702C134.71 217.735 134.693 217.751 134.661 217.751C134.661 217.784 134.628 217.865 134.563 217.996C134.497 218.127 134.416 218.274 134.318 218.437C134.252 218.633 134.154 218.796 134.024 218.927C133.958 218.992 133.893 219.025 133.828 219.025C133.828 219.058 133.762 219.074 133.632 219.074C133.599 219.074 133.583 219.058 133.583 219.025C133.583 219.025 133.566 219.025 133.534 219.025C133.534 219.025 133.517 218.992 133.485 218.927C133.485 218.894 133.452 218.862 133.387 218.829C133.354 218.796 133.305 218.731 133.24 218.633C133.207 218.568 133.207 218.568 133.24 218.633C133.207 218.568 133.174 218.519 133.142 218.486C133.142 218.453 133.125 218.421 133.093 218.388L132.897 217.898C132.864 217.833 132.831 217.767 132.799 217.702C132.766 217.637 132.733 217.588 132.701 217.555L132.456 217.114C132.26 216.82 132.064 216.526 131.868 216.232C131.704 215.971 131.557 215.677 131.427 215.35L131.133 214.615C131.002 214.256 130.871 213.864 130.741 213.439C130.643 213.014 130.545 212.59 130.447 212.165C130.381 211.936 130.316 211.708 130.251 211.479C130.185 211.283 130.12 211.071 130.055 210.842L129.614 209.715C129.581 209.65 129.548 209.584 129.516 209.519C129.483 209.454 129.45 209.405 129.418 209.372C129.254 209.045 129.042 208.751 128.781 208.49C128.781 208.653 128.748 208.768 128.683 208.833C128.65 208.866 128.617 208.849 128.585 208.784C128.552 208.719 128.519 208.67 128.487 208.637L128.144 208.294V208.343C128.274 208.474 128.389 208.604 128.487 208.735C128.617 208.866 128.503 208.751 128.144 208.392C128.111 208.457 128.095 208.539 128.095 208.637C128.095 208.735 128.078 208.833 128.046 208.931C128.013 209.421 127.98 210.058 127.948 210.842C127.948 211.626 127.948 212.41 127.948 213.194C127.948 213.978 127.915 214.615 127.85 215.105C127.85 215.138 127.817 215.138 127.752 215.105C127.686 215.072 127.654 215.04 127.654 215.007C127.49 213.962 127.409 212.737 127.409 211.332C127.441 209.96 127.343 208.768 127.115 207.755C127.049 207.69 127.017 207.657 127.017 207.657C127.017 207.624 127 207.608 126.968 207.608C126.968 207.608 126.968 207.592 126.968 207.559C126.968 207.526 126.951 207.51 126.919 207.51L126.576 207.069C126.576 207.036 126.559 207.02 126.527 207.02C126.494 206.955 126.461 206.889 126.429 206.824C126.396 206.759 126.363 206.693 126.331 206.628C126.298 206.628 126.282 206.595 126.282 206.53C126.249 206.53 126.233 206.53 126.233 206.53C126.233 206.497 126.233 206.481 126.233 206.481C126.069 206.154 125.89 205.828 125.694 205.501C125.498 205.142 125.318 204.799 125.155 204.472C124.926 204.145 124.697 203.77 124.469 203.345C124.24 202.92 123.995 202.479 123.734 202.022C123.734 201.989 123.717 201.973 123.685 201.973C123.685 201.94 123.685 201.908 123.685 201.875C123.358 201.32 123.048 200.764 122.754 200.209C122.46 199.654 122.149 199.115 121.823 198.592C121.692 198.331 121.545 198.069 121.382 197.808C121.251 197.547 121.104 197.285 120.941 197.024C120.908 196.959 120.875 196.893 120.843 196.828C120.81 196.763 120.761 196.665 120.696 196.534C120.663 196.501 120.647 196.469 120.647 196.436L120.5 196.583V206.481C120.5 206.775 120.483 206.987 120.451 207.118C120.483 207.085 120.418 207.2 120.255 207.461C120.418 207.298 120.418 207.314 120.255 207.51C120.091 207.673 119.977 207.771 119.912 207.804C119.879 208.033 119.846 208.261 119.814 208.49C119.814 208.719 119.797 208.964 119.765 209.225C119.732 209.388 119.699 209.552 119.667 209.715C119.667 209.878 119.634 210.042 119.569 210.205C119.536 210.238 119.503 210.287 119.471 210.352C119.471 210.45 119.438 210.515 119.373 210.548C119.307 210.581 119.242 210.532 119.177 210.401C119.111 210.303 119.046 210.156 118.981 209.96C118.883 209.699 118.817 209.519 118.785 209.421C118.752 209.356 118.687 209.209 118.589 208.98C118.556 208.947 118.507 208.866 118.442 208.735C118.409 208.604 118.327 208.523 118.197 208.49L118.001 208.686C117.805 208.947 117.625 209.258 117.462 209.617L117.315 210.107C117.021 210.826 116.776 211.659 116.58 212.606C116.416 213.586 116.22 214.452 115.992 215.203C115.959 215.236 115.943 215.268 115.943 215.301C115.943 215.366 115.926 215.432 115.894 215.497C115.828 215.824 115.747 216.15 115.649 216.477C115.551 216.804 115.42 217.114 115.257 217.408C115.191 217.604 115.126 217.751 115.061 217.849C114.995 218.045 114.881 218.159 114.718 218.192C114.685 218.225 114.603 218.241 114.473 218.241C114.44 218.6 114.473 219.172 114.571 219.956C114.701 220.74 114.816 221.524 114.914 222.308C115.012 223.092 115.028 223.713 114.963 224.17C114.897 224.66 114.685 224.774 114.326 224.513C113.966 224.252 113.754 223.843 113.689 223.288C113.623 222.733 113.623 222.112 113.689 221.426C113.787 220.773 113.885 220.136 113.983 219.515C114.113 218.894 114.162 218.404 114.13 218.045C114.13 218.012 114.113 217.996 114.081 217.996C114.081 217.996 114.081 217.98 114.081 217.947C114.048 217.947 114.015 217.914 113.983 217.849C113.95 217.784 113.95 217.784 113.983 217.849C113.983 217.849 113.917 217.751 113.787 217.555C113.689 217.326 113.591 217.098 113.493 216.869C113.395 216.673 113.313 216.461 113.248 216.232C113.117 215.84 112.986 215.448 112.856 215.056C112.725 214.664 112.578 214.272 112.415 213.88C112.186 213.227 111.941 212.606 111.68 212.018C111.451 211.463 111.157 210.777 110.798 209.96C110.732 209.829 110.667 209.699 110.602 209.568C110.569 209.47 110.52 209.356 110.455 209.225C110.357 208.996 110.242 208.768 110.112 208.539C110.046 208.408 110.014 208.343 110.014 208.343C109.948 208.212 109.916 208.147 109.916 208.147C109.883 208.082 109.834 208.033 109.769 208C109.703 208 109.573 207.984 109.377 207.951C109.246 207.886 109.132 207.82 109.034 207.755C108.674 207.494 108.495 207.134 108.495 206.677V176.395C108.495 176.232 108.478 176.068 108.446 175.905C108.446 175.709 108.446 175.529 108.446 175.366C108.446 175.268 108.446 175.186 108.446 175.121C108.478 175.023 108.495 174.941 108.495 174.876C108.495 174.778 108.527 174.664 108.593 174.533C108.691 174.239 108.838 174.043 109.034 173.945L109.328 173.798C109.36 173.765 109.426 173.749 109.524 173.749C109.883 173.651 110.275 173.618 110.7 173.651C111.124 173.684 111.5 173.7 111.827 173.7L118.834 173.651C119.03 173.651 119.16 173.667 119.226 173.7C119.487 173.7 119.732 173.782 119.961 173.945L120.255 174.239C120.32 174.304 120.385 174.435 120.451 174.631V174.729C120.483 174.762 120.5 174.843 120.5 174.974C120.532 175.072 120.549 175.17 120.549 175.268C120.549 175.366 120.549 175.448 120.549 175.513V175.758C120.549 176.019 120.532 176.297 120.5 176.591C120.5 176.885 120.5 177.163 120.5 177.424V184.725L120.647 184.48C120.647 184.447 120.647 184.431 120.647 184.431C120.679 184.398 120.696 184.366 120.696 184.333C120.761 184.268 120.794 184.219 120.794 184.186L120.941 183.941L121.235 183.353C121.594 182.732 121.953 182.079 122.313 181.393C122.705 180.674 123.097 179.988 123.489 179.335C123.587 179.172 123.668 178.992 123.734 178.796C123.832 178.6 123.93 178.42 124.028 178.257C124.158 178.028 124.273 177.816 124.371 177.62C124.501 177.391 124.632 177.195 124.763 177.032C124.763 176.999 124.763 176.983 124.763 176.983C124.795 176.95 124.812 176.934 124.812 176.934L125.547 175.611C125.71 175.35 125.857 175.088 125.988 174.827C126.151 174.533 126.347 174.304 126.576 174.141C126.837 173.912 127.18 173.782 127.605 173.749C127.768 173.716 127.931 173.7 128.095 173.7C128.258 173.667 128.405 173.651 128.536 173.651C128.634 173.651 128.715 173.667 128.781 173.7C128.879 173.7 128.96 173.7 129.026 173.7H138.042C138.205 173.7 138.368 173.7 138.532 173.7C138.728 173.667 138.907 173.667 139.071 173.7C139.332 173.765 139.544 173.912 139.708 174.141C139.871 174.337 139.936 174.566 139.904 174.827C139.904 174.925 139.871 175.072 139.806 175.268L139.414 175.954C139.381 175.954 139.365 175.97 139.365 176.003C139.299 176.068 139.267 176.117 139.267 176.15C139.136 176.346 139.005 176.542 138.875 176.738C138.777 176.934 138.679 177.13 138.581 177.326L135.494 182.471C135.298 182.798 135.134 183.124 135.004 183.451C134.775 183.908 134.546 184.349 134.318 184.774C134.089 185.199 133.844 185.591 133.583 185.95C133.321 186.375 133.076 186.701 132.848 186.93C132.782 187.061 132.717 187.159 132.652 187.224C132.586 187.355 132.505 187.502 132.407 187.665C132.309 187.828 132.211 187.992 132.113 188.155C132.047 188.286 131.966 188.416 131.868 188.547C131.77 188.678 131.688 188.825 131.623 188.988L131.182 189.723L131.133 189.772C131.165 189.707 131.133 189.756 131.035 189.919C130.969 190.05 130.937 190.115 130.937 190.115L131.182 190.507C131.214 190.54 131.231 190.572 131.231 190.605C131.231 190.638 131.247 190.67 131.28 190.703C131.312 190.736 131.345 190.785 131.378 190.85C131.41 190.883 131.476 190.981 131.574 191.144C131.574 191.209 131.606 191.275 131.672 191.34C131.737 191.405 131.77 191.471 131.77 191.536L132.309 192.418C132.472 192.647 132.619 192.875 132.75 193.104C132.88 193.333 133.011 193.561 133.142 193.79C133.403 194.051 133.615 194.329 133.779 194.623C134.138 194.95 134.465 195.423 134.759 196.044C135.053 196.632 135.347 197.253 135.641 197.906C135.739 198.102 135.837 198.298 135.935 198.494C136.033 198.69 136.147 198.886 136.278 199.082L138.777 203.345C138.94 203.574 139.087 203.819 139.218 204.08C139.381 204.309 139.528 204.554 139.659 204.815C139.724 204.88 139.838 205.06 140.002 205.354C140.067 205.485 140.149 205.615 140.247 205.746C140.345 205.877 140.426 206.024 140.492 206.187L140.639 206.432C140.639 206.465 140.639 206.497 140.639 206.53C140.671 206.563 140.688 206.612 140.688 206.677C140.72 206.71 140.737 206.791 140.737 206.922V207.118ZM149.598 181.442C149.206 181.507 148.798 181.458 148.373 181.295C147.981 181.132 147.589 180.936 147.197 180.707C147.099 180.674 146.985 180.642 146.854 180.609C146.756 180.544 146.642 180.495 146.511 180.462C146.25 180.397 145.972 180.331 145.678 180.266C145.417 180.168 145.155 180.07 144.894 179.972C144.796 179.939 144.698 179.923 144.6 179.923C144.535 179.89 144.453 179.858 144.355 179.825L143.963 179.678C143.93 179.613 143.881 179.564 143.816 179.531C143.783 179.498 143.734 179.466 143.669 179.433C143.44 179.204 143.31 178.959 143.277 178.698V173.7C143.277 173.406 143.261 173.079 143.228 172.72C143.228 172.361 143.326 172.05 143.522 171.789L143.816 171.495C143.914 171.43 144.061 171.364 144.257 171.299C144.518 171.234 144.78 171.201 145.041 171.201C145.335 171.201 145.596 171.217 145.825 171.25H151.362C151.656 171.217 151.95 171.201 152.244 171.201C152.571 171.168 152.881 171.185 153.175 171.25C153.208 171.25 153.224 171.266 153.224 171.299C153.224 171.299 153.24 171.299 153.273 171.299C153.306 171.299 153.387 171.332 153.518 171.397C153.681 171.462 153.812 171.577 153.91 171.74C154.073 171.936 154.155 172.116 154.155 172.279C154.188 172.442 154.204 172.573 154.204 172.671C154.237 172.802 154.253 172.932 154.253 173.063C154.253 173.161 154.253 173.275 154.253 173.406C154.253 174.092 154.237 174.794 154.204 175.513C154.204 176.232 154.204 176.934 154.204 177.62V178.502C154.204 178.665 154.188 178.796 154.155 178.894C154.122 179.057 154.024 179.221 153.861 179.384L153.665 179.58C153.6 179.645 153.534 179.678 153.469 179.678C153.436 179.711 153.404 179.76 153.371 179.825C153.371 179.89 153.338 179.939 153.273 179.972C153.273 179.972 153.24 179.972 153.175 179.972C153.11 179.939 153.044 179.923 152.979 179.923C152.914 179.923 152.832 179.939 152.734 179.972C152.636 180.005 152.554 180.037 152.489 180.07C152.424 180.103 152.342 180.135 152.244 180.168C152.146 180.168 152.064 180.184 151.999 180.217C151.934 180.217 151.885 180.233 151.852 180.266C151.623 180.364 151.395 180.495 151.166 180.658C150.937 180.821 150.692 180.985 150.431 181.148C150.17 181.279 149.892 181.377 149.598 181.442ZM154.4 207.118C154.367 207.151 154.351 207.183 154.351 207.216C154.351 207.249 154.335 207.281 154.302 207.314V207.363C154.237 207.428 154.171 207.494 154.106 207.559C154.041 207.624 153.975 207.69 153.91 207.755C153.91 207.755 153.894 207.771 153.861 207.804C153.861 207.804 153.845 207.804 153.812 207.804C153.812 207.804 153.796 207.82 153.763 207.853C153.763 207.853 153.747 207.853 153.714 207.853C153.649 207.918 153.583 208.016 153.518 208.147C153.485 208.18 153.453 208.229 153.42 208.294C153.42 208.359 153.387 208.408 153.322 208.441C153.191 208.604 153.061 208.751 152.93 208.882C152.799 209.045 152.669 209.209 152.538 209.372V209.421H152.489C152.489 209.454 152.456 209.503 152.391 209.568L151.754 210.646C151.591 210.94 151.395 211.152 151.166 211.283C151.035 211.348 150.97 211.381 150.97 211.381C150.937 211.642 150.954 211.953 151.019 212.312C151.084 212.704 151.117 213.031 151.117 213.292C151.117 213.586 151.003 213.7 150.774 213.635C150.513 213.57 150.382 213.39 150.382 213.096C150.382 212.835 150.415 212.524 150.48 212.165C150.578 211.838 150.611 211.544 150.578 211.283C150.545 211.283 150.48 211.234 150.382 211.136C150.284 211.038 150.202 210.924 150.137 210.793C150.072 210.695 150.006 210.581 149.941 210.45C149.843 210.352 149.778 210.27 149.745 210.205L149.304 209.764C149.271 209.993 149.271 210.319 149.304 210.744C149.369 211.169 149.32 211.316 149.157 211.185C148.928 211.022 148.863 210.777 148.961 210.45C149.059 210.123 149.075 209.829 149.01 209.568C148.977 209.503 148.928 209.454 148.863 209.421C148.83 209.388 148.781 209.339 148.716 209.274L148.373 208.931C148.308 208.833 148.21 208.719 148.079 208.588C148.014 208.915 147.981 209.258 147.981 209.617C147.981 209.976 147.948 210.336 147.883 210.695C147.85 210.728 147.818 210.711 147.785 210.646C147.752 210.581 147.72 210.532 147.687 210.499C147.589 210.368 147.491 210.254 147.393 210.156C147.328 210.058 147.23 209.976 147.099 209.911C146.936 209.846 146.772 209.829 146.609 209.862C146.446 209.895 146.282 209.846 146.119 209.715C145.988 209.617 145.874 209.503 145.776 209.372C145.711 209.274 145.629 209.16 145.531 209.029C145.498 209.029 145.466 209.013 145.433 208.98C145.4 208.947 145.368 208.964 145.335 209.029C145.302 209.584 145.27 210.156 145.237 210.744C145.237 211.332 145.204 211.92 145.139 212.508C145.139 212.573 145.106 212.524 145.041 212.361C145.008 212.23 144.976 212.132 144.943 212.067C144.878 211.871 144.812 211.642 144.747 211.381C144.682 211.152 144.616 210.94 144.551 210.744C144.42 210.287 144.339 209.976 144.306 209.813C144.306 209.65 144.306 209.519 144.306 209.421C144.339 209.323 144.322 209.176 144.257 208.98C144.224 208.817 144.11 208.474 143.914 207.951L143.62 207.804C143.391 207.641 143.228 207.445 143.13 207.216C143.065 206.987 143.032 206.759 143.032 206.53C142.999 206.301 142.983 206.073 142.983 205.844C143.016 205.583 143.032 205.338 143.032 205.109V183.843C143.032 183.68 143.048 183.549 143.081 183.451C143.146 183.255 143.212 183.124 143.277 183.059L143.571 182.765C143.702 182.667 143.914 182.585 144.208 182.52C144.535 182.455 144.861 182.438 145.188 182.471C145.547 182.504 145.858 182.52 146.119 182.52H150.97C151.362 182.52 151.754 182.504 152.146 182.471C152.571 182.438 152.979 182.455 153.371 182.52C153.436 182.52 153.502 182.536 153.567 182.569C153.632 182.602 153.698 182.634 153.763 182.667C153.861 182.7 153.926 182.732 153.959 182.765C154.057 182.863 154.122 182.945 154.155 183.01C154.286 183.141 154.384 183.353 154.449 183.647C154.482 183.778 154.482 183.941 154.449 184.137C154.449 184.3 154.449 184.464 154.449 184.627C154.482 185.248 154.482 185.868 154.449 186.489C154.449 187.077 154.449 187.681 154.449 188.302V205.305C154.449 205.436 154.449 205.566 154.449 205.697C154.449 205.828 154.465 205.975 154.498 206.138C154.498 206.269 154.498 206.399 154.498 206.53C154.498 206.661 154.465 206.857 154.4 207.118ZM186.302 198.151C186.498 198.347 186.596 198.576 186.596 198.837C186.661 199.262 186.596 199.703 186.4 200.16C186.204 200.585 186.024 200.96 185.861 201.287C185.567 201.908 185.224 202.463 184.832 202.953C184.472 203.41 184.08 203.868 183.656 204.325C183.558 204.423 183.427 204.537 183.264 204.668C183.133 204.799 183.035 204.897 182.97 204.962C182.904 204.995 182.823 205.06 182.725 205.158C182.725 205.158 182.692 205.191 182.627 205.256C182.496 205.485 182.382 205.746 182.284 206.04C182.186 206.334 182.088 206.612 181.99 206.873C181.859 207.134 181.728 207.428 181.598 207.755C181.467 208.082 181.32 208.376 181.157 208.637L180.863 209.029L180.814 209.078C180.716 209.176 180.618 209.258 180.52 209.323C180.454 209.421 180.373 209.503 180.275 209.568C180.177 209.666 180.079 209.764 179.981 209.862C179.915 209.96 179.817 210.058 179.687 210.156C179.458 210.319 179.213 210.352 178.952 210.254C178.69 210.189 178.478 210.042 178.315 209.813C178.282 209.748 178.249 209.666 178.217 209.568C178.217 209.503 178.184 209.454 178.119 209.421C178.053 209.356 178.021 209.307 178.021 209.274C177.89 209.209 177.743 209.094 177.58 208.931C177.482 208.866 177.4 208.784 177.335 208.686C177.269 208.621 177.237 208.588 177.237 208.588C176.91 208.915 176.73 209.29 176.698 209.715C176.698 210.14 176.73 210.581 176.796 211.038C176.861 211.495 176.845 211.953 176.747 212.41C176.747 212.508 176.681 212.655 176.551 212.851C176.518 212.916 176.485 213.014 176.453 213.145C176.42 213.308 176.387 213.357 176.355 213.292C176.289 212.606 176.257 211.92 176.257 211.234C176.257 210.581 176.224 209.911 176.159 209.225C176.159 209.225 176.093 209.258 175.963 209.323C175.93 209.323 175.897 209.323 175.865 209.323C175.865 209.356 175.832 209.372 175.767 209.372C175.669 209.372 175.603 209.388 175.571 209.421C175.538 210.14 175.505 210.875 175.473 211.626C175.473 212.41 175.44 213.178 175.375 213.929C175.375 213.962 175.358 213.929 175.326 213.831C175.293 213.766 175.244 213.717 175.179 213.684L174.983 213.341C174.885 213.145 174.787 212.933 174.689 212.704C174.591 212.508 174.493 212.312 174.395 212.116C174.068 211.332 173.676 210.548 173.219 209.764C173.055 209.47 172.892 209.209 172.729 208.98C172.729 209.045 172.696 209.078 172.631 209.078C172.598 209.111 172.533 209.029 172.435 208.833C172.239 208.604 172.026 208.49 171.798 208.49C167.584 208.392 164.219 207.134 161.704 204.717L161.508 204.521C160.789 203.77 160.168 202.904 159.646 201.924C159.156 200.911 158.829 199.801 158.666 198.592C158.535 198.004 158.47 197.416 158.47 196.828C158.47 196.24 158.47 195.636 158.47 195.015V194.966C158.47 194.705 158.47 194.443 158.47 194.182C158.47 193.888 158.486 193.594 158.519 193.3C158.519 193.137 158.519 192.973 158.519 192.81C158.551 192.647 158.584 192.483 158.617 192.32C158.617 192.255 158.617 192.173 158.617 192.075C158.617 191.977 158.633 191.879 158.666 191.781C158.666 191.748 158.666 191.716 158.666 191.683C158.698 191.65 158.715 191.618 158.715 191.585C158.878 190.736 159.123 189.935 159.45 189.184C159.776 188.4 160.168 187.681 160.626 187.028C160.691 186.93 160.805 186.799 160.969 186.636C162.21 185.133 163.794 183.99 165.722 183.206C167.682 182.422 169.854 182.03 172.239 182.03C172.435 182.03 172.631 182.03 172.827 182.03C173.023 182.03 173.202 182.046 173.366 182.079C173.562 182.014 173.741 182.014 173.905 182.079L175.081 182.226C175.538 182.161 175.914 182.193 176.208 182.324L176.502 182.471C178.625 182.928 180.373 183.647 181.745 184.627C183.117 185.574 184.211 186.62 185.028 187.763C185.093 187.861 185.158 187.975 185.224 188.106C185.322 188.204 185.403 188.318 185.469 188.449C185.893 189.07 186.204 189.772 186.4 190.556C186.432 190.589 186.449 190.638 186.449 190.703C186.449 190.736 186.465 190.785 186.498 190.85C186.628 191.307 186.645 191.683 186.547 191.977C186.547 192.01 186.53 192.042 186.498 192.075C186.465 192.206 186.416 192.304 186.351 192.369C186.285 192.402 186.22 192.451 186.155 192.516C186.122 192.549 186.089 192.598 186.057 192.663C186.024 192.696 185.991 192.745 185.959 192.81C185.959 192.81 185.926 192.875 185.861 193.006C185.795 193.137 185.73 193.235 185.665 193.3C185.632 193.333 185.599 193.398 185.567 193.496C185.567 193.594 185.534 193.627 185.469 193.594C185.403 193.529 185.371 193.447 185.371 193.349C185.371 193.218 185.338 193.12 185.273 193.055C185.24 193.022 185.175 193.055 185.077 193.153C185.011 193.218 184.946 193.349 184.881 193.545C184.848 193.643 184.815 193.757 184.783 193.888C184.783 193.986 184.75 194.035 184.685 194.035C184.619 194.035 184.587 193.97 184.587 193.839C184.587 193.676 184.554 193.578 184.489 193.545C184.489 193.512 184.423 193.561 184.293 193.692C184.162 193.823 184.031 193.921 183.901 193.986C183.639 194.215 183.345 194.509 183.019 194.868C182.692 195.195 182.333 195.342 181.941 195.309C181.679 195.309 181.418 195.244 181.157 195.113C180.895 194.982 180.634 194.884 180.373 194.819C180.242 194.754 180.079 194.705 179.883 194.672C179.719 194.639 179.556 194.59 179.393 194.525C179.262 194.46 179.115 194.394 178.952 194.329C178.788 194.231 178.625 194.166 178.462 194.133C178.266 194.068 178.053 194.019 177.825 193.986C177.629 193.921 177.449 193.839 177.286 193.741C177.122 193.676 176.959 193.594 176.796 193.496C176.632 193.398 176.469 193.316 176.306 193.251C176.142 193.153 175.963 193.088 175.767 193.055C175.603 192.99 175.44 192.924 175.277 192.859C175.146 192.794 175.048 192.728 174.983 192.663C174.721 192.532 174.509 192.304 174.346 191.977C174.215 191.748 174.084 191.52 173.954 191.291C173.856 191.03 173.692 190.834 173.464 190.703L173.17 190.997C173.3 190.866 173.366 190.768 173.366 190.703C173.333 190.703 173.251 190.719 173.121 190.752C173.023 190.785 172.941 190.817 172.876 190.85V191.291C172.908 191.422 172.925 191.552 172.925 191.683C172.957 191.781 172.974 191.895 172.974 192.026C173.039 192.287 173.023 192.467 172.925 192.565C172.892 192.663 172.827 192.712 172.729 192.712C172.663 192.712 172.598 192.712 172.533 192.712L172.484 192.663C172.418 192.598 172.386 192.483 172.386 192.32C172.386 192.157 172.402 191.993 172.435 191.83C172.467 191.634 172.484 191.454 172.484 191.291V191.046C172.484 190.948 172.467 190.899 172.435 190.899C172.435 190.866 172.435 190.85 172.435 190.85C172.402 190.85 172.369 190.866 172.337 190.899C172.304 190.899 172.271 190.899 172.239 190.899C172.108 190.964 172.043 190.997 172.043 190.997C172.01 191.03 171.928 191.046 171.798 191.046C171.765 191.046 171.716 191.03 171.651 190.997C171.618 190.964 171.585 190.981 171.553 191.046C171.52 191.111 171.504 191.242 171.504 191.438C171.504 191.634 171.455 191.716 171.357 191.683C171.193 191.618 171.112 191.503 171.112 191.34C171.112 191.177 171.128 191.046 171.161 190.948C171.095 191.013 171.063 191.046 171.063 191.046C170.997 191.177 170.965 191.242 170.965 191.242C170.932 191.307 170.899 191.389 170.867 191.487C170.834 191.585 170.801 191.667 170.769 191.732C170.671 191.928 170.622 192.157 170.622 192.418C170.589 192.581 170.556 192.761 170.524 192.957C170.524 193.153 170.524 193.349 170.524 193.545V193.79C170.524 193.921 170.524 194.068 170.524 194.231C170.524 194.362 170.507 194.509 170.475 194.672C170.475 195.129 170.475 195.554 170.475 195.946C170.475 196.305 170.491 196.665 170.524 197.024V197.318C170.556 197.383 170.573 197.498 170.573 197.661C170.573 197.824 170.589 197.939 170.622 198.004C170.622 198.102 170.622 198.2 170.622 198.298C170.654 198.363 170.671 198.445 170.671 198.543C170.703 198.576 170.72 198.625 170.72 198.69C170.72 198.723 170.736 198.772 170.769 198.837C170.899 199.262 171.095 199.588 171.357 199.817C171.422 199.882 171.569 199.948 171.798 200.013C171.863 200.046 171.961 200.062 172.092 200.062C172.222 200.095 172.337 200.111 172.435 200.111C172.533 200.111 172.647 200.111 172.778 200.111C172.843 200.078 172.908 200.062 172.974 200.062C173.072 200.062 173.153 200.046 173.219 200.013C173.317 199.948 173.415 199.882 173.513 199.817C173.643 199.752 173.741 199.67 173.807 199.572C173.839 199.507 173.872 199.458 173.905 199.425C173.937 199.392 173.97 199.36 174.003 199.327L174.297 198.641C174.395 198.347 174.574 198.118 174.836 197.955C174.901 197.857 174.983 197.808 175.081 197.808C175.211 197.775 175.26 197.759 175.228 197.759C175.358 197.694 175.473 197.661 175.571 197.661C175.832 197.596 176.159 197.579 176.551 197.612C176.975 197.645 177.351 197.661 177.678 197.661H184.097C184.325 197.661 184.554 197.661 184.783 197.661C185.044 197.628 185.289 197.628 185.518 197.661C185.714 197.726 185.861 197.792 185.959 197.857L186.204 198.004C186.269 198.069 186.302 198.118 186.302 198.151ZM218.841 207.265C218.809 207.396 218.727 207.51 218.596 207.608C218.498 207.706 218.417 207.788 218.351 207.853C218.319 207.886 218.286 207.918 218.253 207.951C218.221 207.984 218.172 208.016 218.106 208.049C218.041 208.18 217.959 208.327 217.861 208.49C217.763 208.653 217.616 208.719 217.42 208.686C217.29 208.686 217.224 208.67 217.224 208.637C217.126 208.735 217.045 208.8 216.979 208.833C216.849 208.964 216.702 209.045 216.538 209.078C216.375 209.111 216.195 209.16 215.999 209.225C215.934 209.258 215.869 209.274 215.803 209.274C215.771 209.307 215.705 209.356 215.607 209.421C215.509 209.519 215.444 209.552 215.411 209.519C215.379 209.388 215.362 209.258 215.362 209.127C215.362 208.996 215.346 208.866 215.313 208.735C215.215 208.866 215.117 208.98 215.019 209.078C214.921 209.209 214.84 209.356 214.774 209.519C214.709 209.65 214.627 209.764 214.529 209.862C214.431 209.96 214.35 210.058 214.284 210.156C214.252 210.221 214.186 210.287 214.088 210.352C213.99 210.45 213.909 210.532 213.843 210.597C213.811 210.76 213.778 210.94 213.745 211.136C213.745 211.332 213.729 211.528 213.696 211.724C213.664 211.789 213.631 211.871 213.598 211.969C213.598 212.1 213.566 212.149 213.5 212.116C213.402 212.083 213.337 212.018 213.304 211.92C213.304 211.822 213.304 211.724 213.304 211.626C213.206 211.234 213.141 210.989 213.108 210.891C213.108 210.793 213.092 210.728 213.059 210.695C213.059 210.662 212.978 210.564 212.814 210.401C212.684 210.205 212.569 210.058 212.471 209.96C212.341 209.829 212.226 209.748 212.128 209.715C212.063 210.434 212.03 211.136 212.03 211.822C212.03 212.541 211.998 213.243 211.932 213.929C211.932 213.962 211.9 213.978 211.834 213.978C211.769 213.978 211.736 213.962 211.736 213.929C211.704 213.276 211.687 212.606 211.687 211.92C211.687 211.234 211.655 210.548 211.589 209.862L211.148 210.303C211.116 210.63 211.083 210.94 211.05 211.234C211.05 211.561 211.018 211.887 210.952 212.214C210.952 212.247 210.92 212.214 210.854 212.116C210.822 212.018 210.789 211.953 210.756 211.92C210.724 211.659 210.691 211.397 210.658 211.136C210.626 210.875 210.577 210.613 210.511 210.352C210.413 210.319 210.299 210.205 210.168 210.009C210.07 209.846 209.956 209.666 209.825 209.47C209.695 209.307 209.531 209.111 209.335 208.882C209.303 208.882 209.286 208.866 209.286 208.833C209.286 208.833 209.27 208.833 209.237 208.833C209.205 208.833 209.172 208.849 209.139 208.882C209.139 208.915 209.107 208.947 209.041 208.98C209.009 209.013 208.96 209.029 208.894 209.029C208.862 209.062 208.845 209.094 208.845 209.127C208.845 209.16 208.845 209.356 208.845 209.715C208.878 210.074 208.862 210.45 208.796 210.842C208.764 211.267 208.649 211.593 208.453 211.822C208.421 211.855 208.372 211.887 208.306 211.92C208.274 211.953 208.257 211.953 208.257 211.92C208.192 211.463 208.208 210.989 208.306 210.499C208.404 210.042 208.323 209.633 208.061 209.274C207.963 209.143 207.914 209.192 207.914 209.421C207.947 209.65 207.98 209.927 208.012 210.254C208.045 210.613 208.061 210.907 208.061 211.136C208.061 211.365 207.996 211.43 207.865 211.332C207.539 211.071 207.457 210.695 207.62 210.205C207.784 209.748 207.8 209.339 207.669 208.98C207.637 208.849 207.62 208.898 207.62 209.127C207.653 209.388 207.653 209.65 207.62 209.911C207.62 210.172 207.571 210.254 207.473 210.156C207.31 209.96 207.261 209.699 207.326 209.372C207.392 209.078 207.392 208.8 207.326 208.539C207.294 208.474 207.261 208.523 207.228 208.686C207.228 208.882 207.196 208.964 207.13 208.931C207.065 208.866 207.032 208.784 207.032 208.686C207.032 208.588 207.016 208.49 206.983 208.392C206.951 208.327 206.934 208.245 206.934 208.147C206.934 208.082 206.902 208.033 206.836 208C206.836 208 206.787 208 206.689 208C206.624 207.967 206.559 207.918 206.493 207.853C206.363 207.722 206.248 207.608 206.15 207.51C206.085 207.379 206.02 207.265 205.954 207.167L205.905 207.118C205.644 206.759 205.399 206.334 205.17 205.844L201.642 199.964C201.446 199.67 201.299 199.425 201.201 199.229L201.152 199.18L200.956 199.229V204.913C200.956 205.24 200.973 205.583 201.005 205.942C201.038 206.269 201.022 206.595 200.956 206.922C200.956 207.053 200.907 207.167 200.809 207.265C200.809 207.33 200.777 207.396 200.711 207.461C200.581 207.657 200.483 207.755 200.417 207.755C200.352 207.853 200.287 207.935 200.221 208C200.156 208.098 200.091 208.196 200.025 208.294C199.993 208.327 199.96 208.376 199.927 208.441C199.927 208.506 199.895 208.539 199.829 208.539C199.829 208.539 199.813 208.539 199.78 208.539C199.78 208.539 199.78 208.523 199.78 208.49C199.552 208.817 199.274 209.16 198.947 209.519C198.653 209.878 198.294 210.042 197.869 210.009C197.575 210.009 197.412 209.96 197.379 209.862C197.379 209.764 197.363 209.552 197.33 209.225C197.2 209.225 197.118 209.258 197.085 209.323C197.053 209.617 197.085 209.976 197.183 210.401C197.281 210.858 197.33 211.25 197.33 211.577C197.363 211.936 197.216 212.116 196.889 212.116C196.661 212.116 196.546 211.985 196.546 211.724C196.579 211.463 196.644 211.152 196.742 210.793C196.84 210.466 196.906 210.156 196.938 209.862C196.971 209.568 196.889 209.372 196.693 209.274C196.595 209.209 196.497 209.176 196.399 209.176C196.367 209.209 196.35 209.241 196.35 209.274C196.35 209.339 196.334 209.405 196.301 209.47C196.301 209.47 196.236 209.437 196.105 209.372C196.073 209.372 196.04 209.356 196.007 209.323C196.007 209.323 195.975 209.323 195.909 209.323C195.909 209.323 195.844 209.29 195.713 209.225C195.615 209.192 195.55 209.16 195.517 209.127C195.485 209.062 195.468 208.98 195.468 208.882C195.403 208.882 195.37 208.882 195.37 208.882C195.305 209.013 195.272 209.143 195.272 209.274C195.272 209.405 195.24 209.519 195.174 209.617C195.174 209.65 195.109 209.601 194.978 209.47C194.913 209.437 194.848 209.388 194.782 209.323C194.619 209.192 194.488 209.045 194.39 208.882C194.292 208.719 194.178 208.572 194.047 208.441C194.015 208.441 193.966 208.408 193.9 208.343C193.868 208.376 193.819 208.376 193.753 208.343C193.721 208.343 193.672 208.359 193.606 208.392C193.476 208.457 193.345 208.539 193.214 208.637C193.116 208.735 192.986 208.817 192.822 208.882C192.626 208.915 192.43 208.898 192.234 208.833C192.071 208.768 191.908 208.67 191.744 208.539C191.712 208.67 191.679 208.8 191.646 208.931C191.646 209.094 191.614 209.241 191.548 209.372C191.516 209.405 191.467 209.388 191.401 209.323C191.369 209.258 191.336 209.209 191.303 209.176C191.14 209.013 191.026 208.833 190.96 208.637C190.928 208.441 190.879 208.229 190.813 208C190.748 208 190.715 207.984 190.715 207.951C190.65 207.951 190.601 207.935 190.568 207.902C190.536 207.902 190.503 207.886 190.47 207.853C190.176 207.722 189.98 207.543 189.882 207.314C189.784 207.053 189.735 206.791 189.735 206.53C189.703 206.367 189.686 206.22 189.686 206.089C189.686 205.958 189.686 205.828 189.686 205.697C189.719 204.946 189.735 204.08 189.735 203.1C189.735 202.12 189.735 201.254 189.735 200.503V174.533C189.735 174.174 189.833 173.896 190.029 173.7C190.095 173.635 190.144 173.586 190.176 173.553C190.209 173.52 190.242 173.488 190.274 173.455C190.536 173.292 190.813 173.21 191.107 173.21C191.401 173.177 191.679 173.177 191.94 173.21H194.684C195.338 173.21 195.991 173.21 196.644 173.21C197.298 173.21 197.935 173.194 198.555 173.161C198.751 173.161 198.964 173.161 199.192 173.161C199.421 173.128 199.65 173.145 199.878 173.21C200.27 173.275 200.581 173.504 200.809 173.896C200.875 174.027 200.907 174.141 200.907 174.239C201.005 174.598 201.038 174.99 201.005 175.415C200.973 175.807 200.956 176.166 200.956 176.493V190.409L201.103 190.164C201.103 190.131 201.12 190.099 201.152 190.066C201.25 189.903 201.348 189.739 201.446 189.576C201.544 189.413 201.642 189.249 201.74 189.086L203.21 186.734C203.472 186.211 203.749 185.721 204.043 185.264C204.337 184.807 204.648 184.333 204.974 183.843C205.072 183.582 205.285 183.271 205.611 182.912C205.677 182.879 205.726 182.847 205.758 182.814C205.791 182.781 205.824 182.749 205.856 182.716C205.987 182.651 206.085 182.618 206.15 182.618C206.216 182.585 206.281 182.569 206.346 182.569C206.412 182.536 206.477 182.52 206.542 182.52C206.902 182.455 207.261 182.438 207.62 182.471C208.012 182.504 208.372 182.52 208.698 182.52H214.823C215.085 182.52 215.379 182.504 215.705 182.471C216.032 182.438 216.342 182.455 216.636 182.52C216.734 182.52 216.849 182.553 216.979 182.618C217.045 182.618 217.159 182.667 217.322 182.765L217.371 182.814C217.567 183.01 217.682 183.19 217.714 183.353C217.812 183.614 217.796 183.892 217.665 184.186C217.567 184.415 217.42 184.66 217.224 184.921C217.061 185.15 216.898 185.362 216.734 185.558L216.538 185.852L214.48 188.743C214.48 188.808 214.448 188.874 214.382 188.939C214.121 189.396 213.843 189.854 213.549 190.311C213.288 190.736 212.994 191.128 212.667 191.487C212.439 191.748 212.21 192.042 211.981 192.369C211.785 192.663 211.573 192.957 211.344 193.251L211.148 193.496C211.148 193.529 211.132 193.545 211.099 193.545C211.099 193.545 211.099 193.561 211.099 193.594L210.903 194.133L211.197 194.574L212.373 196.387C212.537 196.681 212.716 196.942 212.912 197.171C213.304 197.596 213.664 198.102 213.99 198.69C214.056 198.723 214.105 198.772 214.137 198.837C214.17 198.902 214.203 198.968 214.235 199.033L214.676 199.817C214.742 199.948 214.807 200.078 214.872 200.209C214.938 200.307 215.003 200.421 215.068 200.552L216.832 203.247C216.898 203.345 216.947 203.427 216.979 203.492C217.045 203.525 217.11 203.606 217.175 203.737C217.241 203.835 217.306 203.933 217.371 204.031C217.437 204.129 217.502 204.227 217.567 204.325C217.731 204.554 217.878 204.782 218.008 205.011C218.139 205.207 218.27 205.403 218.4 205.599C218.4 205.632 218.4 205.648 218.4 205.648C218.433 205.648 218.449 205.664 218.449 205.697C218.482 205.73 218.515 205.779 218.547 205.844C218.58 205.909 218.613 205.975 218.645 206.04C218.776 206.171 218.874 206.35 218.939 206.579C218.972 206.808 218.939 207.036 218.841 207.265ZM246.323 200.601C246.225 201.973 245.784 203.198 245 204.276C244.968 204.341 244.919 204.407 244.853 204.472C244.788 204.537 244.723 204.603 244.657 204.668C244.527 204.799 244.38 204.946 244.216 205.109C244.053 205.272 243.873 205.436 243.677 205.599C243.514 205.828 243.351 206.073 243.187 206.334C243.057 206.595 242.893 206.84 242.697 207.069C242.567 207.2 242.469 207.232 242.403 207.167C242.142 207.755 241.881 208.261 241.619 208.686C241.554 208.817 241.472 208.931 241.374 209.029C241.276 209.16 241.178 209.29 241.08 209.421C240.95 209.552 240.884 209.601 240.884 209.568C240.852 209.307 240.835 209.029 240.835 208.735C240.835 208.474 240.819 208.212 240.786 207.951C240.688 208.016 240.607 208.098 240.541 208.196C240.509 208.229 240.476 208.245 240.443 208.245C240.411 208.278 240.378 208.327 240.345 208.392C240.313 208.719 240.28 209.062 240.247 209.421C240.215 209.78 240.166 210.14 240.1 210.499C240.068 210.662 240.035 210.907 240.002 211.234C239.97 211.561 239.921 211.642 239.855 211.479C239.692 210.956 239.659 210.564 239.757 210.303C239.855 210.074 239.774 209.666 239.512 209.078C239.48 209.307 239.463 209.535 239.463 209.764C239.463 209.993 239.447 210.221 239.414 210.45C239.414 210.483 239.382 210.499 239.316 210.499C239.284 210.499 239.251 210.515 239.218 210.548C239.186 210.548 239.153 210.548 239.12 210.548C239.12 210.581 239.088 210.597 239.022 210.597C238.826 210.76 238.647 210.94 238.483 211.136C238.255 211.397 238.059 211.724 237.895 212.116C237.863 212.149 237.83 212.198 237.797 212.263C237.765 212.328 237.732 212.394 237.699 212.459C237.667 212.524 237.618 212.606 237.552 212.704C237.52 212.835 237.503 212.884 237.503 212.851C237.438 212.263 237.405 211.675 237.405 211.087C237.405 210.499 237.373 209.911 237.307 209.323C237.242 209.258 237.177 209.225 237.111 209.225C237.046 209.258 236.981 209.274 236.915 209.274C236.85 209.307 236.785 209.339 236.719 209.372C236.523 209.437 236.344 209.47 236.18 209.47C236.18 209.503 236.164 209.519 236.131 209.519C236.131 209.519 236.131 209.535 236.131 209.568C235.805 209.927 235.641 210.107 235.641 210.107C235.641 210.107 235.707 210.042 235.837 209.911C235.968 209.78 236.05 209.699 236.082 209.666C236.148 209.666 236.033 209.846 235.739 210.205C235.674 210.27 235.609 210.368 235.543 210.499C235.511 210.532 235.478 210.597 235.445 210.695C235.413 210.793 235.38 210.826 235.347 210.793C235.249 210.63 235.2 210.368 235.2 210.009C235.233 209.682 235.217 209.601 235.151 209.764C235.053 209.927 235.037 210.14 235.102 210.401C235.168 210.695 235.2 210.94 235.2 211.136C235.233 211.365 235.151 211.479 234.955 211.479C234.661 211.479 234.563 211.267 234.661 210.842C234.792 210.417 234.825 210.058 234.759 209.764C234.759 209.731 234.694 209.715 234.563 209.715C234.465 209.715 234.4 209.699 234.367 209.666C234.269 209.666 234.188 209.633 234.122 209.568C234.09 209.862 234.073 210.156 234.073 210.45C234.073 210.744 234.041 211.038 233.975 211.332C233.943 211.43 233.91 211.397 233.877 211.234C233.845 211.071 233.812 210.956 233.779 210.891C233.747 210.793 233.714 210.695 233.681 210.597C233.649 210.532 233.616 210.466 233.583 210.401L233.142 209.274C233.142 209.405 233.126 209.552 233.093 209.715C233.093 209.911 233.061 210.074 232.995 210.205C232.963 210.27 232.93 210.221 232.897 210.058C232.897 209.927 232.865 209.829 232.799 209.764L232.211 208.49H231.917C229.01 208.425 226.658 208 224.861 207.216C223.065 206.399 221.742 205.485 220.892 204.472C220.762 204.309 220.615 204.129 220.451 203.933C220.321 203.737 220.206 203.541 220.108 203.345C219.978 203.116 219.88 202.904 219.814 202.708C219.749 202.479 219.684 202.267 219.618 202.071C219.52 201.679 219.504 201.336 219.569 201.042C219.569 200.977 219.586 200.911 219.618 200.846C219.651 200.781 219.684 200.732 219.716 200.699C219.749 200.634 219.814 200.552 219.912 200.454C220.108 200.258 220.353 200.16 220.647 200.16C220.909 200.095 221.252 200.078 221.676 200.111C222.101 200.144 222.477 200.16 222.803 200.16H227.262C227.622 200.16 227.997 200.144 228.389 200.111C228.781 200.078 229.157 200.095 229.516 200.16C229.582 200.193 229.631 200.209 229.663 200.209C229.729 200.209 229.794 200.225 229.859 200.258C230.088 200.323 230.3 200.421 230.496 200.552C230.692 200.65 230.888 200.781 231.084 200.944L231.427 201.14C231.558 201.205 231.689 201.271 231.819 201.336C231.95 201.401 232.081 201.467 232.211 201.532C232.375 201.565 232.505 201.597 232.603 201.63C232.701 201.63 232.816 201.63 232.946 201.63C233.208 201.63 233.436 201.581 233.632 201.483C233.894 201.385 234.041 201.189 234.073 200.895V200.552C234.041 200.519 234.024 200.487 234.024 200.454C233.894 200.193 233.632 199.98 233.24 199.817L232.848 199.67C232.783 199.637 232.718 199.621 232.652 199.621C232.587 199.588 232.522 199.572 232.456 199.572C232.293 199.539 232.097 199.539 231.868 199.572C231.672 199.572 231.493 199.556 231.329 199.523C231.101 199.49 230.872 199.441 230.643 199.376C230.447 199.311 230.219 199.294 229.957 199.327C229.794 199.36 229.614 199.409 229.418 199.474C229.255 199.507 229.092 199.539 228.928 199.572C228.765 199.605 228.602 199.605 228.438 199.572C228.275 199.539 228.112 199.523 227.948 199.523C227.818 199.49 227.671 199.474 227.507 199.474C227.377 199.474 227.23 199.458 227.066 199.425C226.707 199.36 226.331 199.229 225.939 199.033C225.547 198.804 225.188 198.576 224.861 198.347C224.633 198.151 224.371 197.89 224.077 197.563C223.816 197.236 223.522 196.91 223.195 196.583C223.097 196.485 223.048 196.436 223.048 196.436C223.016 196.436 222.983 196.469 222.95 196.534C222.95 196.599 222.918 196.616 222.852 196.583C222.82 196.55 222.787 196.501 222.754 196.436C222.754 196.371 222.738 196.305 222.705 196.24C222.607 196.044 222.46 195.864 222.264 195.701C222.199 195.636 222.134 195.57 222.068 195.505C222.036 195.44 221.987 195.391 221.921 195.358C221.987 195.391 221.938 195.342 221.774 195.211C221.611 195.048 221.529 194.95 221.529 194.917C221.333 194.656 221.17 194.427 221.039 194.231C220.811 193.839 220.647 193.545 220.549 193.349C220.484 193.12 220.402 192.843 220.304 192.516C220.076 191.732 219.978 190.915 220.01 190.066C220.01 189.968 220.027 189.886 220.059 189.821C220.223 188.09 221.088 186.505 222.656 185.068C224.257 183.598 226.511 182.651 229.418 182.226C229.582 182.193 229.745 182.177 229.908 182.177C230.072 182.144 230.235 182.128 230.398 182.128C230.562 182.095 230.725 182.079 230.888 182.079C231.084 182.046 231.264 182.03 231.427 182.03H231.77C232.195 181.997 232.603 181.981 232.995 181.981C233.42 181.981 233.812 182.014 234.171 182.079C234.237 182.079 234.286 182.095 234.318 182.128C236.507 182.291 238.369 182.732 239.904 183.451C241.44 184.17 242.681 185.003 243.628 185.95C243.759 186.081 243.873 186.211 243.971 186.342C244.069 186.44 244.184 186.571 244.314 186.734C244.706 187.224 244.968 187.73 245.098 188.253C245.164 188.482 245.213 188.727 245.245 188.988C245.278 189.217 245.245 189.445 245.147 189.674C245.115 189.707 245.098 189.756 245.098 189.821C245.066 189.821 245.049 189.837 245.049 189.87L244.706 190.213C244.674 190.213 244.641 190.229 244.608 190.262C244.608 190.262 244.592 190.262 244.559 190.262C244.559 190.295 244.543 190.376 244.51 190.507C244.478 190.605 244.429 190.654 244.363 190.654C244.363 190.654 244.347 190.654 244.314 190.654C244.314 190.654 244.298 190.638 244.265 190.605C244.265 190.605 244.233 190.572 244.167 190.507H244.02C244.02 190.54 244.004 190.572 243.971 190.605C243.971 190.605 243.971 190.621 243.971 190.654C243.939 190.85 243.939 191.062 243.971 191.291C244.004 191.52 243.939 191.716 243.775 191.879C243.677 192.01 243.628 191.944 243.628 191.683C243.661 191.389 243.645 191.177 243.579 191.046C243.547 191.013 243.514 191.03 243.481 191.095C243.449 191.16 243.416 191.209 243.383 191.242L242.795 191.83C242.338 192.222 241.799 192.5 241.178 192.663C240.917 192.728 240.688 192.761 240.492 192.761C241.799 193.284 242.861 193.904 243.677 194.623C244.494 195.309 245.115 196.077 245.539 196.926C245.67 197.122 245.752 197.269 245.784 197.367C245.915 197.694 246.029 198.02 246.127 198.347C246.225 198.641 246.291 198.968 246.323 199.327V200.601ZM236.768 191.83C237.095 191.863 237.405 191.912 237.699 191.977C237.993 192.042 238.287 192.108 238.581 192.173C238.451 192.042 238.304 191.928 238.14 191.83C237.977 191.699 237.814 191.585 237.65 191.487C237.324 191.552 236.964 191.618 236.572 191.683C236.213 191.716 235.854 191.667 235.494 191.536C235.07 191.373 234.71 191.128 234.416 190.801C234.122 190.474 233.812 190.164 233.485 189.87C233.322 189.935 233.142 189.935 232.946 189.87C232.816 189.805 232.685 189.739 232.554 189.674C232.424 189.576 232.277 189.478 232.113 189.38C232.048 189.315 231.983 189.249 231.917 189.184C231.852 189.119 231.787 189.102 231.721 189.135C231.558 189.233 231.46 189.347 231.427 189.478V189.527C231.395 189.56 231.378 189.609 231.378 189.674V189.968C231.411 190.001 231.427 190.033 231.427 190.066C231.493 190.197 231.591 190.327 231.721 190.458C231.852 190.589 231.983 190.687 232.113 190.752C232.244 190.817 232.326 190.85 232.358 190.85C232.652 190.981 233.044 191.111 233.534 191.242C234.024 191.34 234.645 191.471 235.396 191.634L236.572 191.781C236.54 191.781 236.572 191.797 236.67 191.83C236.801 191.863 236.834 191.863 236.768 191.83Z" fill="black"/>
</svg>
