<svg width="86" height="37" viewBox="0 0 86 37" fill="none" xmlns="http://www.w3.org/2000/svg">
<path d="M35.8624 23.1225C45.5368 20.0012 53.9964 13.9396 60.0624 5.78245L53.8624 0.022456C53.6401 -0.00748534 53.4148 -0.00748534 53.1924 0.022456C50.1573 0.404714 47.2012 1.26185 44.4324 2.56245L47.6324 7.19245C47.7521 7.36034 47.8368 7.55054 47.8816 7.75178C47.9264 7.95302 47.9303 8.16121 47.8931 8.36399C47.8559 8.56677 47.7784 8.76002 47.6651 8.93228C47.5519 9.10454 47.4052 9.25231 47.2337 9.36682C47.0623 9.48134 46.8696 9.56026 46.6671 9.59892C46.4646 9.63758 46.2564 9.63518 46.0548 9.59188C45.8533 9.54857 45.6625 9.46523 45.4937 9.3468C45.325 9.22838 45.1817 9.07728 45.0724 8.90245L41.4624 3.66246C40.1224 4.26246 38.7324 4.92245 37.3624 5.60245L40.3224 9.78245L40.4124 9.91246C40.5195 10.0845 40.5916 10.2759 40.6246 10.4758C40.6576 10.6757 40.651 10.8801 40.605 11.0775C40.5591 11.2748 40.4747 11.4611 40.3567 11.6258C40.2387 11.7906 40.0895 11.9304 39.9174 12.0375C39.7454 12.1445 39.554 12.2166 39.3541 12.2496C39.1542 12.2827 38.9497 12.276 38.7524 12.2301C38.5551 12.1841 38.3688 12.0997 38.204 11.9817C38.0393 11.8638 37.8995 11.7145 37.7924 11.5425L34.7124 7.04245C33.5224 7.65245 32.3824 8.29245 31.2724 8.92245L33.7124 12.6325C33.8245 12.803 33.9017 12.9941 33.9398 13.1946C33.9778 13.3951 33.9758 13.6012 33.934 13.8009C33.8922 14.0007 33.8114 14.1902 33.6961 14.3587C33.5809 14.5271 33.4335 14.6711 33.2624 14.7825C33.0926 14.8915 32.9028 14.9659 32.7041 15.0013C32.5054 15.0367 32.3017 15.0324 32.1046 14.9887C31.9075 14.9451 31.7211 14.8628 31.5559 14.7467C31.3908 14.6307 31.2503 14.4831 31.1424 14.3125L28.5624 10.4125C27.4124 10.9925 26.1624 11.5325 24.8524 12.0425L26.6524 15.3225C26.7535 15.4997 26.8188 15.6952 26.8443 15.8977C26.8699 16.1002 26.8554 16.3057 26.8015 16.5026C26.7476 16.6994 26.6555 16.8838 26.5304 17.045C26.4053 17.2063 26.2497 17.3413 26.0724 17.4425C25.8951 17.5436 25.6997 17.6088 25.4972 17.6344C25.2947 17.6599 25.0892 17.6454 24.8923 17.5915C24.6954 17.5377 24.5111 17.4456 24.3499 17.3205C24.1886 17.1954 24.0535 17.0397 23.9524 16.8625L21.9524 13.1725C18.6721 14.2773 15.3337 15.202 11.9524 15.9425C15.0026 18.4903 18.778 20.0123 22.7424 20.2925C27.2012 20.7837 31.5976 21.732 35.8624 23.1225ZM40.7624 24.6625C47.2924 26.7625 53.1124 28.9225 54.4924 29.4425C58.4924 29.3525 62.3824 29.2225 65.8724 29.1025C69.0124 15.6925 81.3624 11.7225 85.4424 10.7825V3.16246C85.4424 2.55246 85.4424 1.62245 83.2824 1.62245C82.7043 1.63039 82.1283 1.69402 81.5624 1.81245V5.34246C81.5611 5.55746 81.5151 5.76983 81.4273 5.96609C81.3395 6.16235 81.2119 6.3382 81.0524 6.48246C77.3024 9.84246 72.1124 10.5525 68.4124 10.5525C67.3259 10.5559 66.2403 10.4891 65.1624 10.3525C64.8507 10.3029 64.5612 10.16 64.3324 9.94245L62.3324 8.00246C56.7233 15.3675 49.2638 21.1157 40.7124 24.6625H40.7624ZM39.0024 29.5225H45.7524C38.4024 27.0225 27.7024 23.6025 22.6324 23.3525C17.1999 22.983 12.0879 20.6474 8.25243 16.7825C6.90243 17.0525 5.91243 17.3025 5.52243 17.3025C-0.68757 19.8525 -0.13757 24.4925 0.16243 25.8825C2.66243 27.4225 11.0424 29.6225 38.9524 29.5225H39.0024ZM69.0624 28.9825C77.3724 28.6425 83.0624 28.3025 83.1324 28.3025C84.8724 28.3025 85.3524 26.5325 85.4424 26.0825V13.9125C81.4624 14.9125 72.0324 18.4125 69.0624 28.9825ZM67.0624 32.1225C63.1624 32.2725 58.8024 32.4125 54.1824 32.5225C49.2824 32.7125 44.1224 32.7125 39.0024 32.7125C17.1724 32.7125 7.16243 31.3825 2.36243 30.1025C8.15243 35.4025 24.3624 36.4725 31.1024 36.3725H83.8624V31.3724H83.2124C83.1824 31.3824 76.5624 31.7825 67.1024 32.1225H67.0624Z" fill="black"/>
</svg>
